<svg version="1.1" id="logo-white" xmlns="http://www.w3.org/2000/svg" x="0px" y="0px" viewBox="0 0 512 512"
	style="enable-background:new 0 0 512 512;" xml:space="preserve">
	<style type="text/css">
		.st0 {
			fill: #FFFFFF;
		}
	</style>
	<path class="st0" d="M412,512H100C44.8,512,0,467.2,0,412V100C0,44.8,44.8,0,100,0h312c55.2,0,100,44.8,100,100v312
		C512,467.2,467.2,512,412,512z" />
	<path d="M292.4,70.6c-34.9,3.7-63.3,24.7-75.7,56.3c-5.3,13.4-6.1,18.3-6.1,34c0,7.8,0.2,16.8,0.5,19.9l0.5,5.8l-3,2
		c-1.7,1.2-3.3,2.2-3.8,2.2c-1.2,0-9.8-7.3-17.4-14.8c-16.9-16.6-26.2-32.7-38.5-67.4c-3.7-10.3-4.7-12-7.6-12
		c-4.7,0-19.6,18.6-25.9,32.2c-7,14.8-9.6,26.6-9.6,42.5c0,18.8,4.7,33.5,14.8,48.6c10.8,15.8,23.9,26.4,44,35.4
		c4.7,2,8.6,4.1,9,4.7c0.3,0.5,0.7,2.5,0.7,4.3c0,3.5,0,3.7-4,5.3c-7.1,3-19.6,6.8-27.7,8.3c-16.6,3.2-33.4,3-56.8-1.2
		c-21.9-3.8-22.4-3.8-24.1-2.2c-2,1.7-2,3.2,0,9.6c9,31.4,32.9,57.3,61.4,66.9c10.3,3.5,14.3,4,27.9,4c14.4,0,21.1-1.2,33.5-5.6
		c7.3-2.7,19.3-9.6,27.7-15.9c3-2.2,5.5-4,6-4c0.3,0,2.2,0.7,4.1,1.5l3.7,1.5l-0.5,4.5c-2.2,18.1-9,37.9-17.8,52.3
		c-5,8-14.6,20.8-24.2,32.2c-11.1,13-11,14.4,1.5,17.6c25.1,6.3,54.5,1.8,76-11.6c7.6-4.8,17.8-14,23.1-21.2
		c8-10.5,14.6-26.1,17.3-40.3c1-5.6,1.2-9.5,0.8-20.8c-0.3-7.6-0.7-15.1-1-16.9c-0.3-3-0.2-3.2,2.8-5.1c1.7-1.2,3.3-2,3.8-2
		c1.2,0,9.5,7,17.1,14.4c17.1,16.8,25.9,31.9,37.7,65.1c2.3,6.6,4.8,12.6,5.5,13.3c2.7,3,5,1.8,11.6-5.1
		c10.3-10.8,17.4-22.7,22.2-37.5c11-32.7,4.8-63.4-17.9-89.5c-9-10.5-19.8-18.1-35.5-25.1c-5-2.2-9.1-4.3-9.6-4.8
		c-0.3-0.5-0.5-2.5-0.3-4.7l0.2-3.8l7.8-3c26.4-10,46.8-11.3,80.4-5.5c22.1,3.8,22.4,3.8,24.1,2.2c2-1.8,1.7-5-1.5-14.3
		c-3-8.6-4.7-12.1-8.8-19.3c-12.3-20.8-30.7-36-51.5-43c-10.3-3.5-18.6-4.5-30.7-4c-21.8,1-36.7,6.3-56.3,20.4l-7.8,5.5l-3.7-1.5
		l-3.7-1.5v-3.8c0.2-5.3,3-18.4,5.8-27.1c6-18.3,15.6-33.9,36.2-58.1c11.1-13,11-14.4-1.5-17.6C316.2,70.1,305,69.3,292.4,70.6z
		 M272,193.1c12.3,3.2,21.8,9,30.7,18.3c16.9,17.8,22.2,41.8,14.4,65.4c-5.3,16.1-17.1,29.6-31.9,36.9c-10.8,5.1-17.3,6.8-28.6,7
		c-17.8,0.2-32.5-5.6-45-17.4c-13.6-13-20.4-29.1-20.4-48c0-16.8,6-31.5,17.9-43.8c10.5-10.8,22.6-17.3,37.5-19.8
		C252.9,190.6,265.4,191.3,272,193.1z" />
	<path d="M244.9,211.9c-19.3,4.7-34.2,23.7-34.2,43.7c0,7.6,1.2,12.6,4.8,20.1c7.3,15.3,23.4,25.2,40.5,25.2
		c28.4,0,50.1-26.7,44.3-54.5c-3.3-16.1-17.6-30.9-33.7-34.7C260.5,210.6,250.9,210.6,244.9,211.9z" />
</svg>