<svg version="1.1" id="logo-black" xmlns="http://www.w3.org/2000/svg" xmlns:xlink="http://www.w3.org/1999/xlink" x="0px"
	y="0px" viewBox="0 0 512 512" style="enable-background:new 0 0 512 512;" xml:space="preserve">
	<style type="text/css">
		.st0 {
			fill: #FFFFFF;
		}
	</style>
	<path
		d="M409,507H103c-54.1,0-98-43.9-98-98V103C5,48.9,48.9,5,103,5H409c54.1,0,98,43.9,98,98V409C507,463.1,463.1,507,409,507z" />
	<path id="logo-path" class="st0" d="M233.1,439.7l7-137.2l-81,0.3c-6,0-9.9-6.3-7.2-11.6L263.7,68.3c3.9-7.7,15.6-4.7,15.2,4
	l-7,137.2l81-0.3c6,0,9.9,6.3,7.2,11.6l-112,222.9C244.2,451.5,232.6,448.4,233.1,439.7z" />
</svg>