<svg version="1.1" id="sub-logo-white" xmlns="http://www.w3.org/2000/svg" x="0px" y="0px" viewBox="0 0 512 512"
	style="enable-background:new 0 0 512 512;" xml:space="preserve">
	<style type="text/css">
		.st0 {
			fill: #FFFFFF;
		}
	</style>
	<path class="st0" d="M302.75,17.91c-44.78,4.69-81.24,31.77-97.23,72.28c-6.82,17.27-7.89,23.45-7.89,43.71
				c0,10.02,0.21,21.54,0.64,25.59l0.64,7.46l-3.84,2.56c-2.13,1.49-4.26,2.77-4.9,2.77c-1.49,0-12.58-9.38-22.39-18.98
				c-21.75-21.32-33.69-42.01-49.47-86.57c-4.69-13.22-5.97-15.35-9.81-15.35c-5.97,0-25.16,23.88-33.26,41.37
				c-8.96,18.98-12.37,34.12-12.37,54.59c0,24.09,5.97,43.07,18.98,62.48c13.86,20.26,30.7,33.9,56.5,45.42
				c5.97,2.56,11.09,5.33,11.51,5.97c0.43,0.64,0.85,3.2,0.85,5.54c0,4.48,0,4.69-5.12,6.82c-9.17,3.84-25.16,8.74-35.61,10.66
				c-21.32,4.05-42.86,3.84-72.92-1.49c-28.15-4.9-28.79-4.9-30.92-2.77c-2.56,2.13-2.56,4.05,0,12.37
				c11.51,40.3,42.22,73.56,78.89,85.93c13.22,4.48,18.34,5.12,35.82,5.12c18.55,0,27.08-1.49,43.07-7.25
				c9.38-3.41,24.73-12.37,35.61-20.47c3.84-2.77,7.04-5.12,7.68-5.12c0.43,0,2.77,0.85,5.33,1.92l4.69,1.92l-0.64,5.76
				c-2.77,23.24-11.51,48.62-22.82,67.17c-6.4,10.23-18.76,26.65-31.13,41.37c-14.29,16.63-14.07,18.55,1.92,22.6
				c32.2,8.1,69.94,2.35,97.66-14.93c9.81-6.18,22.82-17.91,29.64-27.29c10.23-13.43,18.76-33.48,22.18-51.81
				c1.28-7.25,1.49-12.15,1.07-26.65c-0.43-9.81-0.85-19.4-1.28-21.75c-0.43-3.84-0.21-4.05,3.62-6.61c2.13-1.49,4.26-2.56,4.9-2.56
				c1.49,0,12.15,8.96,21.96,18.55c21.96,21.54,33.26,40.94,48.4,83.58c2.99,8.53,6.18,16.21,7.04,17.06
				c3.41,3.84,6.4,2.35,14.93-6.61c13.22-13.86,22.39-29.21,28.57-48.19c14.07-42.01,6.18-81.45-23.03-114.93
				c-11.51-13.43-25.37-23.24-45.63-32.2c-6.4-2.77-11.73-5.54-12.37-6.18c-0.43-0.64-0.64-3.2-0.43-5.97l0.21-4.9l10.02-3.84
				c33.9-12.79,60.13-14.5,103.2-7.04c28.36,4.9,28.79,4.9,30.92,2.77c2.56-2.35,2.13-6.4-1.92-18.34
				c-3.84-11.09-5.97-15.57-11.3-24.73c-15.78-26.65-39.45-46.27-66.1-55.23c-13.22-4.48-23.88-5.76-39.45-5.12
				c-27.93,1.28-47.12,8.1-72.28,26.23l-10.02,7.04l-4.69-1.92l-4.69-1.92v-4.9c0.21-6.82,3.84-23.67,7.46-34.76
				c7.68-23.45,20.04-43.5,46.48-74.63c14.29-16.63,14.07-18.55-1.92-22.6C333.24,17.27,318.96,16.2,302.75,17.91z M276.52,175.27
				c15.78,4.05,27.93,11.51,39.45,23.45c21.75,22.82,28.57,53.73,18.55,84.01c-6.82,20.68-21.96,37.95-40.94,47.34
				c-13.86,6.61-22.18,8.74-36.67,8.96c-22.82,0.21-41.79-7.25-57.78-22.39c-17.48-16.63-26.23-37.31-26.23-61.62
				c0-21.54,7.68-40.51,23.03-56.29c13.43-13.86,29-22.18,48.19-25.37C252,172.07,267.99,172.92,276.52,175.27z" />
	<path class="st0" d="M241.77,199.36c-24.73,5.97-43.92,30.49-43.92,56.08c0,9.81,1.49,16.21,6.18,25.8
				c9.38,19.62,30.06,32.41,52.03,32.41c36.46,0,64.39-34.33,56.93-69.94c-4.26-20.68-22.6-39.66-43.28-44.56
				C261.81,197.66,249.44,197.66,241.77,199.36z" />
</svg>